<?xml version="1.0" encoding="UTF-8" standalone="no"?><!DOCTYPE svg PUBLIC "-//W3C//DTD SVG 1.1//EN" "http://www.w3.org/Graphics/SVG/1.1/DTD/svg11.dtd"><svg width="100%" height="100%" viewBox="0 0 200 50" version="1.1" xmlns="http://www.w3.org/2000/svg" xmlns:xlink="http://www.w3.org/1999/xlink" xml:space="preserve" xmlns:serif="http://www.serif.com/" style="fill-rule:evenodd;clip-rule:evenodd;stroke-linejoin:round;stroke-miterlimit:1.41421;"><text x="-1.241px" y="42.507px" style="font-family:'FrancoisOne-Regular', 'Francois One';font-size:42.098px;fill:#4fd0fc;">S<tspan x="27.512px 46.932px 76.009px 104.761px 128.497px 157.574px " y="42.507px 42.507px 42.507px 42.507px 42.507px 42.507px ">tuSync</tspan></text><path d="M194.335,5.9c1.719,1 2.841,2.593 2.824,4.404c-0.021,2.682 -2.479,4.928 -5.727,5.459l0.038,-2.118l-5.757,3.391l5.637,3.303l0.065,-2.359c4.814,-0.568 8.551,-3.786 8.585,-7.689c0.02,-2.262 -1.228,-4.274 -3.197,-5.68l-2.468,1.289Zm-11.371,4.479c0.02,-2.681 2.479,-4.928 5.723,-5.456l-0.038,2.118l5.758,-3.391l-5.641,-3.303l-0.059,2.359c-4.817,0.568 -8.55,3.786 -8.584,7.689c-0.021,2.262 1.227,4.271 3.196,5.68l2.465,-1.291c-1.719,-1.001 -2.837,-2.591 -2.82,-4.405Z" style="fill:#4fd0fc;fill-rule:nonzero;"/></svg>