<?xml version="1.0" encoding="UTF-8" standalone="no"?><!DOCTYPE svg PUBLIC "-//W3C//DTD SVG 1.1//EN" "http://www.w3.org/Graphics/SVG/1.1/DTD/svg11.dtd"><svg width="100%" height="100%" viewBox="0 0 200 50" version="1.1" xmlns="http://www.w3.org/2000/svg" xmlns:xlink="http://www.w3.org/1999/xlink" xml:space="preserve" xmlns:serif="http://www.serif.com/" style="fill-rule:evenodd;clip-rule:evenodd;stroke-linejoin:round;stroke-miterlimit:1.41421;"><g><path d="M13.217,43.096c-3.273,0 -6.033,-0.709 -8.281,-2.126c-2.248,-1.417 -3.893,-3.319 -4.936,-5.704l6.689,-2.442l0.648,0.842c1.042,1.403 2.04,2.498 2.993,3.284c0.953,0.786 2.149,1.178 3.588,1.178c0.935,0 1.771,-0.35 2.508,-1.052c0.738,-0.702 1.106,-1.473 1.106,-2.315c0,-0.786 -0.252,-1.502 -0.755,-2.147c-0.504,-0.646 -1.151,-1.165 -1.942,-1.558l-7.067,-3.284c-2.05,-0.898 -3.686,-2.034 -4.909,-3.41c-1.223,-1.375 -1.834,-2.918 -1.834,-4.63c0,-1.825 0.548,-3.452 1.645,-4.884c1.097,-1.431 2.59,-2.54 4.478,-3.325c1.888,-0.786 4.019,-1.179 6.392,-1.179c2.769,0 5.125,0.533 7.067,1.6c1.942,1.066 3.381,2.652 4.316,4.757l-6.69,2.357c-0.143,-0.224 -0.449,-0.73 -0.917,-1.515c-0.467,-0.786 -1.034,-1.355 -1.699,-1.705c-0.665,-0.351 -1.483,-0.527 -2.454,-0.527c-1.187,0 -2.095,0.295 -2.725,0.885c-0.629,0.589 -0.944,1.347 -0.944,2.273c0,0.673 0.243,1.284 0.729,1.831c0.485,0.547 1.069,0.975 1.753,1.284l6.527,2.989c4.819,2.133 7.355,4.939 7.606,8.42c0,1.992 -0.566,3.753 -1.699,5.283c-1.133,1.529 -2.679,2.715 -4.639,3.557c-1.96,0.842 -4.145,1.263 -6.554,1.263Z" style="fill:#4fd0fc;fill-rule:nonzero;"/><path d="M41.16,42.97c-2.445,0 -4.513,-0.484 -6.204,-1.453c-1.69,-0.968 -2.535,-2.687 -2.535,-5.157l0,-13.092l-4.208,0l0.324,-4.462l4.1,0l0.755,-5.136l6.581,-0.716l0,5.852l6.258,0l-0.324,4.462l-5.88,0l0,13.05c0,0.842 0.27,1.446 0.809,1.81c0.54,0.365 1.331,0.548 2.374,0.548c0.575,0 1.546,-0.084 2.913,-0.253l0,4.084c-0.144,0.028 -0.71,0.112 -1.699,0.252c-0.989,0.141 -2.077,0.211 -3.264,0.211Z" style="fill:#4fd0fc;fill-rule:nonzero;"/><path d="M56.75,43.054c-1.978,0 -3.596,-0.54 -4.855,-1.621c-1.259,-1.08 -1.888,-2.533 -1.888,-4.357l0,-17.765l7.552,-0.505l0,15.87c0,1.123 0.234,1.93 0.702,2.421c0.467,0.491 1.187,0.737 2.158,0.737c0.755,0 1.564,-0.148 2.427,-0.442c0.863,-0.295 1.636,-0.765 2.32,-1.411l0,-16.67l7.606,-0.505l0,23.448l-7.606,0.505l0,-3.031c-1.259,1.123 -2.635,1.958 -4.127,2.505c-1.493,0.547 -2.922,0.821 -4.289,0.821Z" style="fill:#4fd0fc;fill-rule:nonzero;"/><path d="M90.466,43.096c-3.273,0 -6.033,-0.709 -8.281,-2.126c-2.247,-1.417 -3.893,-3.319 -4.936,-5.704l6.69,-2.442l0.647,0.842c1.043,1.403 2.041,2.498 2.994,3.284c0.953,0.786 2.149,1.178 3.587,1.178c0.935,0 1.771,-0.35 2.509,-1.052c0.737,-0.702 1.106,-1.473 1.106,-2.315c0,-0.786 -0.252,-1.502 -0.756,-2.147c-0.503,-0.646 -1.15,-1.165 -1.942,-1.558l-7.066,-3.284c-2.05,-0.898 -3.687,-2.034 -4.909,-3.41c-1.223,-1.375 -1.835,-2.918 -1.835,-4.63c0,-1.825 0.549,-3.452 1.646,-4.884c1.097,-1.431 2.589,-2.54 4.477,-3.325c1.888,-0.786 4.019,-1.179 6.393,-1.179c2.769,0 5.124,0.533 7.066,1.6c1.943,1.066 3.381,2.652 4.316,4.757l-6.689,2.357c-0.144,-0.224 -0.45,-0.73 -0.917,-1.515c-0.468,-0.786 -1.034,-1.355 -1.699,-1.705c-0.666,-0.351 -1.484,-0.527 -2.455,-0.527c-1.187,0 -2.095,0.295 -2.724,0.885c-0.63,0.589 -0.944,1.347 -0.944,2.273c0,0.673 0.243,1.284 0.728,1.831c0.486,0.547 1.07,0.975 1.753,1.284l6.528,2.989c4.819,2.133 7.354,4.939 7.606,8.42c0,1.992 -0.567,3.753 -1.699,5.283c-1.133,1.529 -2.68,2.715 -4.64,3.557c-1.96,0.842 -4.144,1.263 -6.554,1.263Z" style="fill:#4fd0fc;fill-rule:nonzero;"/><path d="M108.753,50c-0.863,0 -1.924,-0.084 -3.182,-0.253l0,-4.925c1.33,0.056 2.391,0.084 3.182,0.084c3.165,0 4.748,-1.15 4.748,-3.452l0,-1.179l-8.686,-21.175l8.2,-0.294l4.262,14.86l4.046,-14.734l6.851,-0.042l-7.768,23.196c-1.079,3.031 -2.653,5.107 -4.721,6.23c-2.068,1.123 -4.378,1.684 -6.932,1.684Z" style="fill:#4fd0fc;fill-rule:nonzero;"/><path d="M131.788,19.311l7.552,-0.505l0,3.031c1.547,-1.067 3.066,-1.888 4.559,-2.463c1.492,-0.575 2.868,-0.863 4.126,-0.863c1.907,0 3.462,0.54 4.667,1.621c1.205,1.08 1.807,2.533 1.807,4.357l0,17.765l-7.552,0.505l0,-16.039c0,-2.105 -0.917,-3.157 -2.752,-3.157c-0.611,0 -1.285,0.14 -2.023,0.421c-0.737,0.28 -1.681,0.687 -2.832,1.22l0,17.05l-7.552,0.505l0,-23.448Z" style="fill:#4fd0fc;fill-rule:nonzero;"/><path d="M170.251,43.054c-2.302,0 -4.271,-0.561 -5.907,-1.684c-1.636,-1.123 -2.868,-2.61 -3.695,-4.462c-0.827,-1.853 -1.241,-3.859 -1.241,-6.02c0,-2.133 0.405,-4.14 1.214,-6.02c0.809,-1.881 2.041,-3.41 3.695,-4.589c1.654,-1.179 3.686,-1.768 6.096,-1.768c1.834,0 3.479,0.358 4.936,1.073c1.456,0.716 2.598,1.719 3.425,3.01c0.827,1.291 1.277,2.765 1.349,4.421l-7.175,0.252c0,-0.112 -0.063,-0.561 -0.189,-1.347c-0.126,-0.786 -0.395,-1.431 -0.809,-1.936c-0.413,-0.506 -0.944,-0.758 -1.591,-0.758c-1.439,0 -2.356,0.765 -2.751,2.294c-0.396,1.53 -0.594,3.249 -0.594,5.157c0,1.881 0.207,3.585 0.621,5.115c0.413,1.53 1.393,2.294 2.94,2.294c1.942,0 2.949,-1.487 3.021,-4.462l6.365,0.547c-0.467,2.919 -1.403,5.129 -2.805,6.631c-1.403,1.501 -3.704,2.252 -6.905,2.252Z" style="fill:#4fd0fc;fill-rule:nonzero;"/></g><path d="M194.335,5.9c1.719,1 2.841,2.593 2.824,4.404c-0.021,2.682 -2.479,4.928 -5.727,5.459l0.038,-2.118l-5.757,3.391l5.637,3.303l0.065,-2.359c4.814,-0.568 8.551,-3.786 8.585,-7.689c0.02,-2.262 -1.228,-4.274 -3.197,-5.68l-2.468,1.289Zm-11.371,4.479c0.02,-2.681 2.479,-4.928 5.723,-5.456l-0.038,2.118l5.758,-3.391l-5.641,-3.303l-0.059,2.359c-4.817,0.568 -8.55,3.786 -8.584,7.689c-0.021,2.262 1.227,4.271 3.196,5.68l2.465,-1.291c-1.719,-1.001 -2.837,-2.591 -2.82,-4.405Z" style="fill:#4fd0fc;fill-rule:nonzero;"/></svg>