<?xml version="1.0" encoding="UTF-8" standalone="no"?><!DOCTYPE svg PUBLIC "-//W3C//DTD SVG 1.1//EN" "http://www.w3.org/Graphics/SVG/1.1/DTD/svg11.dtd"><svg width="100%" height="100%" viewBox="0 0 59 20" version="1.1" xmlns="http://www.w3.org/2000/svg" xmlns:xlink="http://www.w3.org/1999/xlink" xml:space="preserve" xmlns:serif="http://www.serif.com/" style="fill-rule:evenodd;clip-rule:evenodd;stroke-linejoin:round;stroke-miterlimit:1.41421;"><text x="-0.363px" y="16.497px" style="font-family:'FrancoisOne-Regular', 'Francois One';font-size:15.779px;fill:#4fd0fc;">StuSync</text><path d="M56.843,2.776c0.503,0.375 0.831,0.972 0.826,1.651c-0.006,1.005 -0.725,1.847 -1.675,2.046l0.011,-0.794l-1.684,1.271l1.649,1.238l0.019,-0.884c1.408,-0.213 2.501,-1.419 2.511,-2.882c0.006,-0.848 -0.359,-1.602 -0.935,-2.129l-0.722,0.483Zm-3.326,1.679c0.006,-1.005 0.725,-1.847 1.674,-2.045l-0.011,0.794l1.684,-1.271l-1.65,-1.238l-0.017,0.884c-1.409,0.213 -2.501,1.419 -2.511,2.882c-0.006,0.848 0.359,1.601 0.935,2.129l0.721,-0.484c-0.503,-0.375 -0.83,-0.971 -0.825,-1.651Z" style="fill:#4fd0fc;fill-rule:nonzero;"/></svg>