<?xml version="1.0" encoding="UTF-8" standalone="no"?><!DOCTYPE svg PUBLIC "-//W3C//DTD SVG 1.1//EN" "http://www.w3.org/Graphics/SVG/1.1/DTD/svg11.dtd"><svg width="100%" height="100%" viewBox="0 0 256 256" version="1.1" xmlns="http://www.w3.org/2000/svg" xmlns:xlink="http://www.w3.org/1999/xlink" xml:space="preserve" xmlns:serif="http://www.serif.com/" style="fill-rule:evenodd;clip-rule:evenodd;stroke-linejoin:round;stroke-miterlimit:1.41421;"><text x="73.819px" y="136.224px" style="font-family:'FrancoisOne-Regular', 'Francois One';font-size:35.689px;fill:#4fd0fc;">StuSync</text><path d="M203.207,105.192c1.137,0.848 1.879,2.197 1.868,3.734c-0.015,2.273 -1.641,4.177 -3.788,4.627l0.023,-1.796l-3.808,2.876l3.73,2.798l0.043,-1.999c3.185,-0.481 5.657,-3.208 5.679,-6.517c0.013,-1.919 -0.812,-3.624 -2.115,-4.817l-1.632,1.094Zm-7.523,3.797c0.014,-2.273 1.639,-4.177 3.786,-4.626l-0.025,1.797l3.809,-2.876l-3.732,-2.8l-0.039,2c-3.186,0.481 -5.656,3.209 -5.678,6.518c-0.014,1.918 0.811,3.622 2.113,4.816l1.632,-1.095c-1.137,-0.849 -1.877,-2.196 -1.866,-3.734Z" style="fill:#4fd0fc;fill-rule:nonzero;"/></svg>